#!OML:ASF F:\twosubjects\two\Thursday\Session 1\justin.ASF
:FULLY-SPECIFIED
:DEGREES
488
root 9.70393 18.3698 6.84336 -163.963 46.1484 -172.528
lowerback 3.36379 -1.29417 -1.04934
upperback 5.67503 -1.54175 2.19432
thorax 4.06196 -0.756952 2.85913
lowerneck -11.6964 6.1484 0.377721
upperneck 20.1178 7.30977 8.23104
head 7.83281 4.48749 3.41119
rclavicle -1.08338e-014 -2.90226e-014
rhumerus -25.0593 -16.0855 -77.0395
rradius 27.7386
rwrist -2.05888
rhand -15.0971 11.3922
rfingers 7.12502
rthumb 11.0711 -18.2958
lclavicle -1.08338e-014 -2.90226e-014
lhumerus -28.4544 -5.52102 89.2252
lradius 39.8981
lwrist -3.406
lhand -9.09618 39.1769
lfingers 7.12502
lthumb 16.8539 68.4655
rfemur -20.0441 -4.99446 30.5986
rtibia 27.0311
rfoot -17.9075 -4.54266
rtoes 3.37761
lfemur -21.8951 12.9248 -10.8189
ltibia 24.0885
lfoot -6.02628 6.96221
ltoes -6.69229
489
root 9.71728 18.3729 6.84287 -164.185 45.809 -172.911
lowerback 3.37459 -1.24301 -1.04019
upperback 5.58837 -1.47637 2.10845
thorax 3.95796 -0.722811 2.76548
lowerneck -11.833 6.08344 0.454857
upperneck 20.3086 7.27494 7.7968
head 7.94384 4.43581 3.26826
rclavicle 4.68138e-014 -7.95139e-015
rhumerus -25.5217 -16.1759 -76.8242
rradius 27.4681
rwrist -2.24371
rhand -15.2324 11.4525
rfingers 7.12502
rthumb 10.9406 -18.2425
lclavicle 4.68138e-014 -7.95139e-015
lhumerus -28.4786 -5.96631 89.366
lradius 39.8628
lwrist -3.18603
lhand -8.22069 39.2396
lfingers 7.12502
lthumb 17.6965 68.4543
rfemur -20.1766 -5.57104 30.4782
rtibia 27.1162
rfoot -17.9842 -4.46158
rtoes 2.67813
lfemur -22.0109 12.8774 -11.4226
ltibia 24.531
lfoot -6.59536 7.46963
ltoes -5.43763
490
root 9.73247 18.3666 6.83632 -164.447 45.6622 -173.136
lowerback 3.38369 -1.14867 -0.914097
upperback 5.61672 -1.34514 1.99354
thorax 3.96783 -0.649128 2.57594
lowerneck -12.0584 5.9937 0.444284
upperneck 20.4978 7.19638 7.49601
head 8.06278 4.37068 3.18229
rclavicle 9.72057e-014 2.38542e-015
rhumerus -25.9178 -16.4783 -76.6271
rradius 27.2138
rwrist -2.18027
rhand -15.2483 11.275
rfingers 7.12502
rthumb 10.9253 -18.4208
lclavicle 9.72057e-014 2.38542e-015
lhumerus -28.4444 -6.27366 89.3725
lradius 39.8073
lwrist -3.032
lhand -7.7205 39.0705
lfingers 7.12502
lthumb 18.1778 68.2411
rfemur -20.1235 -5.7636 30.3351
rtibia 27.3035
rfoot -18.1484 -4.49826
rtoes 2.64498
lfemur -21.8408 13.0363 -11.9348
ltibia 24.7699
lfoot -6.61893 8.29142
ltoes -5.76363
491
root 9.74526 18.3592 6.8463 -164.703 45.3358 -173.427
lowerback 3.33896 -1.02078 -1.07044
upperback 5.70583 -1.16999 2.01622
thorax 4.08184 -0.56738 2.68729
lowerneck -12.4074 5.843 0.244719
upperneck 20.592 7.02457 7.40755
head 8.15921 4.26682 3.18791
rclavicle 5.1684e-015 1.49089e-014
rhumerus -26.1312 -17.2974 -76.2042
rradius 26.9122
rwrist -1.74311
rhand -15.1778 11.1437
rfingers 7.12502
rthumb 10.9932 -18.5485
lclavicle 5.1684e-015 1.49089e-014
lhumerus -28.1953 -6.33789 89.4801
lradius 39.6789
lwrist -3.02253
lhand -8.14807 38.4683
lfingers 7.12502
lthumb 17.7664 67.6767
rfemur -20.1385 -5.53698 30.1657
rtibia 27.4631
rfoot -18.1721 -4.91225
rtoes 3.12586
lfemur -21.8229 13.1752 -12.4546
ltibia 24.9381
lfoot -7.0996 8.66943
ltoes -3.59691
492
root 9.76291 18.354 6.85319 -164.881 45.0322 -173.665
lowerback 3.23375 -0.766312 -1.50292
upperback 5.73136 -0.83503 2.28485
thorax 4.16397 -0.423434 3.21063
lowerneck -12.6071 5.65388 -0.361004
upperneck 20.6143 6.84741 7.54621
head 8.17802 4.15165 3.32273
rclavicle 2.66371e-014 3.12092e-014
rhumerus -26.4144 -18.1417 -75.3728
rradius 26.5443
rwrist -1.49836
rhand -15.2612 11.0722
rfingers 7.12502
rthumb 10.9128 -18.6242
lclavicle 2.66371e-014 3.12092e-014
lhumerus -27.9055 -6.62591 90.0596
lradius 39.3948
lwrist -3.00171
lhand -8.05742 38.0224
lfingers 7.12502
lthumb 17.8536 67.2229
rfemur -20.1499 -5.4488 30.072
rtibia 27.5859
rfoot -18.275 -5.23182
rtoes 3.49961
lfemur -21.8133 13.2486 -12.9207
ltibia 25.1064
lfoot -7.68244 8.93476
ltoes -3.13417
493
root 9.78527 18.3508 6.86007 -164.863 44.7124 -173.818
lowerback 3.14121 -0.576006 -1.00186
upperback 5.57628 -0.582578 1.91899
thorax 4.02173 -0.271701 2.54819
lowerneck -12.6308 5.53712 -0.326308
upperneck 20.6861 6.63115 7.87737
head 8.20562 4.09628 3.41171
rclavicle -3.926e-014 3.83654e-014
rhumerus -27.0798 -19.3743 -75.3668
rradius 26.2272
rwrist -1.22124
rhand -15.3788 10.8807
rfingers 7.12502
rthumb 10.7994 -18.8217
lclavicle -3.926e-014 3.83654e-014
lhumerus -27.8938 -7.90546 89.8189
lradius 39.2365
lwrist -2.55114
lhand -7.03315 38.3165
lfingers 7.12502
lthumb 18.8389 67.4242
rfemur -20.3314 -5.58382 30.1128
rtibia 27.7424
rfoot -18.5534 -5.43121
rtoes 3.07017
lfemur -21.942 13.3294 -13.3329
ltibia 25.2113
lfoot -7.93815 9.4561
ltoes -4.74302
494
root 9.81115 18.3512 6.86509 -165.085 44.4299 -174.178
lowerback 3.01643 -0.633386 -1.14348
upperback 5.46718 -0.668363 1.91462
thorax 3.98469 -0.322966 2.62155
lowerneck -12.6304 5.66847 -0.663276
upperneck 20.89 6.90532 7.77104
head 8.24957 4.19103 3.46548
rclavicle -6.36111e-015 -1.41137e-014
rhumerus -27.392 -19.3304 -75.1918
rradius 25.918
rwrist -1.03867
rhand -15.5241 10.7352
rfingers 7.12502
rthumb 10.6592 -18.9744
lclavicle -6.36111e-015 -1.41137e-014
lhumerus -28.0575 -7.90601 89.883
lradius 39.2356
lwrist -2.36396
lhand -5.22812 38.9001
lfingers 7.12502
lthumb 20.5742 67.8299
rfemur -20.4209 -5.60343 29.9464
rtibia 27.9304
rfoot -18.9149 -5.69162
rtoes 2.51608
lfemur -21.9194 13.4834 -13.9035
ltibia 25.2645
lfoot -8.46529 10.1679
ltoes -4.27924
495
root 9.83591 18.3512 6.86656 -165.401 44.1121 -174.484
lowerback 2.98513 -0.921185 -1.47207
upperback 5.37693 -1.0634 2.13979
thorax 3.94347 -0.538869 3.03727
lowerneck -12.5309 5.99954 -1.5623
upperneck 21.1078 7.5522 7.76323
head 8.22941 4.42392 3.67158
rclavicle -8.5378e-014 3.75703e-014
rhumerus -27.4241 -18.7296 -74.8925
rradius 25.4072
rwrist -0.556703
rhand -15.5055 10.7906
rfingers 7.12502
rthumb 10.6772 -18.9181
lclavicle -8.5378e-014 3.75703e-014
lhumerus -28.2857 -6.71354 89.944
lradius 39.2288
lwrist -2.56631
lhand -4.15804 39.0202
lfingers 7.12502
lthumb 21.6022 67.8353
rfemur -20.3555 -5.48294 29.767
rtibia 28.1336
rfoot -19.231 -6.01878
rtoes 2.95339
lfemur -21.7402 13.5642 -14.3926
ltibia 25.3516
lfoot -8.83269 10.5766
ltoes -0.799257
496
root 9.85531 18.3533 6.87082 -165.569 43.7003 -174.641
lowerback 3.02745 -1.01243 -1.47314
upperback 5.22677 -1.19361 2.22393
thorax 3.77326 -0.605307 3.12506
lowerneck -12.2798 6.00812 -2.05229
upperneck 21.1016 7.68013 7.70645
head 8.15375 4.43946 3.7302
rclavicle 7.60351e-014 -5.92378e-014
rhumerus -27.8156 -18.9686 -74.5883
rradius 25.0284
rwrist -0.0233446
rhand -15.1351 10.6525
rfingers 7.12502
rthumb 11.0344 -19.0375
lclavicle 7.60351e-014 -5.92378e-014
lhumerus -28.3884 -6.30494 89.9484
lradius 39.0914
lwrist -2.69491
lhand -6.09511 37.8559
lfingers 7.12502
lthumb 19.7409 66.8735
rfemur -20.3779 -5.46899 29.7569
rtibia 28.368
rfoot -19.4222 -6.4625
rtoes 2.64285
lfemur -21.6652 13.5795 -14.7765
ltibia 25.4667
lfoot -9.05815 10.7658
ltoes 1.65838
497
root 9.87222 18.354 6.88948 -165.73 43.1088 -174.967
lowerback 3.08887 -0.860691 -1.51901
upperback 5.06465 -0.998251 2.17634
thorax 3.55603 -0.507953 3.10295
lowerneck -12.3321 5.71861 -1.92198
upperneck 21.1825 7.31193 7.41796
head 8.22997 4.24911 3.58752
rclavicle -3.24019e-014 -1.43125e-014
rhumerus -28.385 -20.0911 -74.2065
rradius 24.7943
rwrist 0.436129
rhand -14.6845 10.3426
rfingers 7.12502
rthumb 11.469 -19.3237
lclavicle -3.24019e-014 -1.43125e-014
lhumerus -28.2658 -7.09105 90.1051
lradius 38.8941
lwrist -2.45761
lhand -4.0277 37.7203
lfingers 7.12502
lthumb 21.7274 66.521
rfemur -20.6064 -5.61967 29.7107
rtibia 28.637
rfoot -19.6497 -7.07032
rtoes 1.77349
lfemur -21.8864 13.7796 -15.341
ltibia 25.6524
lfoot -8.65223 10.8298
ltoes -1.16742
498
root 9.89065 18.3506 6.91756 -165.722 42.3957 -175.324
lowerback 2.99823 -0.677263 -1.63756
upperback 4.8496 -0.765773 2.11064
thorax 3.36809 -0.396389 3.10069
lowerneck -12.5562 5.49663 -1.70283
upperneck 21.44 6.99649 7.27791
head 8.39046 4.1113 3.49938
rclavicle -1.7344e-014 2.31584e-014
rhumerus -28.8477 -20.9678 -73.842
rradius 24.4912
rwrist 0.53012
rhand -14.3997 10.26
rfingers 7.12502
rthumb 11.7437 -19.3908
lclavicle -1.7344e-014 2.31584e-014
lhumerus -28.0386 -8.21648 90.2265
lradius 38.6215
lwrist -2.10982
lhand -3.53116 37.0873
lfingers 7.12502
lthumb 22.2041 65.8319
rfemur -21.0097 -5.65893 29.6957
rtibia 28.8327
rfoot -19.9537 -7.78001
rtoes 1.98624
lfemur -22.4031 14.0839 -15.9101
ltibia 25.8709
lfoot -8.12815 10.4576
ltoes -1.06778
499
root 9.91011 18.3484 6.95679 -165.395 41.4941 -175.494
lowerback 2.81474 -0.60243 -1.68719
upperback 4.52049 -0.684384 2.11548
thorax 3.1239 -0.359773 3.13156
lowerneck -12.5508 5.37809 -1.66363
upperneck 21.4882 6.81802 7.36174
head 8.41349 4.04489 3.50682
rclavicle -3.96078e-014 2.45996e-014
rhumerus -29.3416 -21.3924 -73.6028
rradius 24.2595
rwrist 0.353605
rhand -14.1577 10.596
rfingers 7.12502
rthumb 11.9771 -19.0413
lclavicle -3.96078e-014 2.45996e-014
lhumerus -28.0058 -8.97376 90.2191
lradius 38.5312
lwrist -1.9431
lhand -3.71377 36.2154
lfingers 7.12502
lthumb 22.0288 64.9808
rfemur -21.6085 -5.46754 29.9015
rtibia 29.0073
rfoot -20.1158 -8.6795
rtoes 2.68762
lfemur -23.2003 14.6295 -16.3502
ltibia 26.0988
lfoot -8.41023 9.67952
ltoes 1.39102
500
root 9.93738 18.3502 6.91903 -166.041 41.2917 -175.367
lowerback 3.06916 -0.551436 -1.29254
upperback 4.70692 -0.598263 2.14472
thorax 3.16331 -0.298951 2.94177
lowerneck -12.568 5.43468 -1.88395
upperneck 21.4429 6.96519 7.22794
head 8.38951 4.0799 3.50998
rclavicle -1.55549e-014 1.14301e-015
rhumerus -29.5775 -21.6601 -73.3251
rradius 24.0094
rwrist 0.757028
rhand -13.8916 10.947
rfingers 7.12502
rthumb 12.2337 -18.6752
lclavicle -1.55549e-014 1.14301e-015
lhumerus -28.0737 -8.92578 90.2619
lradius 38.6237
lwrist -2.08948
lhand -3.75848 35.3811
lfingers 7.12502
lthumb 21.9859 64.1515
rfemur -20.712 -5.56108 29.8387
rtibia 29.1116
rfoot -20.3409 -8.80924
rtoes 2.82569
lfemur -22.1908 14.3569 -16.3621
ltibia 26.2825
lfoot -9.02396 10.5254
ltoes -0.51415
501
root 9.96565 18.3446 6.89485 -166.548 41.1172 -175.475
lowerback 3.03777 -0.506106 -1.24787
upperback 4.84955 -0.529003 2.19637
thorax 3.32535 -0.262371 2.97049
lowerneck -12.7989 5.50303 -2.02354
upperneck 21.5104 7.13725 6.94949
head 8.45128 4.11748 3.46879
rclavicle -5.17228e-014 1.76452e-014
rhumerus -29.6174 -21.7747 -73.1411
rradius 23.7407
rwrist 1.41106
rhand -13.5736 10.7362
rfingers 7.12502
rthumb 12.5402 -18.8675
lclavicle -5.17228e-014 1.76452e-014
lhumerus -27.9382 -8.99291 90.3503
lradius 38.5253
lwrist -2.29409
lhand -3.96494 35.2858
lfingers 7.12502
lthumb 21.7876 64.0795
rfemur -20.1521 -5.73001 29.7074
rtibia 29.1318
rfoot -20.4439 -8.8992
rtoes 2.8044
lfemur -21.5911 14.3336 -16.6119
ltibia 26.5039
lfoot -10.5698 10.9354
ltoes 1.63719
502
root 9.98878 18.3383 6.88599 -166.698 40.6952 -175.595
lowerback 2.82347 -0.398217 -1.19529
upperback 4.80695 -0.388408 2.28541
thorax 3.39326 -0.193302 3.0323
lowerneck -13.1356 5.42156 -2.31152
upperneck 21.749 7.09562 6.91014
head 8.58536 4.07362 3.52383
rclavicle 4.08502e-014 -1.61513e-014
rhumerus -29.7554 -22.1052 -72.8769
rradius 23.3792
rwrist 2.09242
rhand -13.2684 10.3308
rfingers 7.12502
rthumb 12.8345 -19.2546
lclavicle 4.08502e-014 -1.61513e-014
lhumerus -27.9304 -9.18347 90.5189
lradius 38.5307
lwrist -2.51352
lhand -3.73848 36.3284
lfingers 7.12502
lthumb 22.0051 65.0966
rfemur -20.0188 -6.06582 29.7025
rtibia 29.0611
rfoot -20.4314 -8.98367
rtoes 2.81781
lfemur -21.5539 14.2664 -16.913
ltibia 26.7933
lfoot -11.1442 11.0554
ltoes 2.90752
